{
	"asset":{
		"generator":"Khronos glTF Blender I/O v4.3.47",
		"version":"2.0"
	},
	"scene":0,
	"scenes":[
		{
			"name":"Scene",
			"nodes":[
				0
			]
		}
	],
	"nodes":[
		{
			"mesh":0,
			"name":"geometry_0.009",
			"scale":[
				80.6290054321289,
				80.6290054321289,
				80.6290054321289
			],
			"translation":[
				-149.56393432617188,
				39.142330169677734,
				0.2967245280742645
			]
		}
	],
	"meshes":[
		{
			"name":"geometry_0.009",
			"primitives":[
				{
					"attributes":{
						"POSITION":0,
						"NORMAL":1,
						"TEXCOORD_0":2
					},
					"indices":3
				}
			]
		}
	],
	"accessors":[
		{
			"bufferView":0,
			"componentType":5126,
			"count":72590,
			"max":[
				0.3759819567203522,
				0.5008122324943542,
				0.43198418617248535
			],
			"min":[
				-0.3761434257030487,
				-0.49923259019851685,
				-0.4377025365829468
			],
			"type":"VEC3"
		},
		{
			"bufferView":1,
			"componentType":5126,
			"count":72590,
			"type":"VEC3"
		},
		{
			"bufferView":2,
			"componentType":5126,
			"count":72590,
			"type":"VEC2"
		},
		{
			"bufferView":3,
			"componentType":5125,
			"count":72651,
			"type":"SCALAR"
		}
	],
	"bufferViews":[
		{
			"buffer":0,
			"byteLength":871080,
			"byteOffset":0,
			"target":34962
		},
		{
			"buffer":0,
			"byteLength":871080,
			"byteOffset":871080,
			"target":34962
		},
		{
			"buffer":0,
			"byteLength":580720,
			"byteOffset":1742160,
			"target":34962
		},
		{
			"buffer":0,
			"byteLength":290604,
			"byteOffset":2322880,
			"target":34963
		}
	],
	"buffers":[
		{
			"byteLength":2613484,
			"uri":"cyberpunk_building3_nt.bin"
		}
	]
}
