{
	"asset":{
		"generator":"Khronos glTF Blender I/O v4.3.47",
		"version":"2.0"
	},
	"scene":0,
	"scenes":[
		{
			"name":"Scene",
			"nodes":[
				0
			]
		}
	],
	"nodes":[
		{
			"mesh":0,
			"name":"geometry_0.004",
			"scale":[
				61.08473205566406,
				61.08473205566406,
				61.08473205566406
			],
			"translation":[
				48.95478439331055,
				30.788427352905273,
				-1.6492327451705933
			]
		}
	],
	"meshes":[
		{
			"name":"geometry_0.006",
			"primitives":[
				{
					"attributes":{
						"POSITION":0,
						"NORMAL":1,
						"TEXCOORD_0":2
					},
					"indices":3
				}
			]
		}
	],
	"accessors":[
		{
			"bufferView":0,
			"componentType":5126,
			"count":30365,
			"max":[
				0.15337827801704407,
				0.5000098943710327,
				0.1391078233718872
			],
			"min":[
				-0.15241339802742004,
				-0.5016134977340698,
				-0.13858400285243988
			],
			"type":"VEC3"
		},
		{
			"bufferView":1,
			"componentType":5126,
			"count":30365,
			"type":"VEC3"
		},
		{
			"bufferView":2,
			"componentType":5126,
			"count":30365,
			"type":"VEC2"
		},
		{
			"bufferView":3,
			"componentType":5123,
			"count":30384,
			"type":"SCALAR"
		}
	],
	"bufferViews":[
		{
			"buffer":0,
			"byteLength":364380,
			"byteOffset":0,
			"target":34962
		},
		{
			"buffer":0,
			"byteLength":364380,
			"byteOffset":364380,
			"target":34962
		},
		{
			"buffer":0,
			"byteLength":242920,
			"byteOffset":728760,
			"target":34962
		},
		{
			"buffer":0,
			"byteLength":60768,
			"byteOffset":971680,
			"target":34963
		}
	],
	"buffers":[
		{
			"byteLength":1032448,
			"uri":"building_no_texture.bin"
		}
	]
}
