{
	"asset":{
		"generator":"Khronos glTF Blender I/O v4.3.47",
		"version":"2.0"
	},
	"extensionsUsed":[
		"KHR_materials_emissive_strength"
	],
	"scene":0,
	"scenes":[
		{
			"name":"Scene",
			"nodes":[
				0
			]
		}
	],
	"nodes":[
		{
			"mesh":0,
			"name":"geometry_0.001",
			"scale":[
				136.27537536621094,
				136.27537536621094,
				136.27537536621094
			],
			"translation":[
				-276.2522277832031,
				62.79522705078125,
				1.1948407888412476
			]
		}
	],
	"materials":[
		{
			"emissiveFactor":[
				1,
				1,
				1
			],
			"emissiveTexture":{
				"index":0
			},
			"extensions":{
				"KHR_materials_emissive_strength":{
					"emissiveStrength":4
				}
			},
			"name":"Material_0.001",
			"pbrMetallicRoughness":{
				"baseColorTexture":{
					"index":1
				}
			}
		}
	],
	"meshes":[
		{
			"name":"geometry_0.001",
			"primitives":[
				{
					"attributes":{
						"POSITION":0,
						"NORMAL":1,
						"TEXCOORD_0":2
					},
					"indices":3,
					"material":0
				}
			]
		}
	],
	"textures":[
		{
			"sampler":0,
			"source":0
		},
		{
			"sampler":0,
			"source":1
		}
	],
	"images":[
		{
			"mimeType":"image/png",
			"name":"brutalist-building2-texture-emission",
			"uri":"brutalist-building2-texture-emission.png"
		},
		{
			"mimeType":"image/png",
			"name":"brutalist-building2-texture",
			"uri":"brutalist-building2-texture.png"
		}
	],
	"accessors":[
		{
			"bufferView":0,
			"componentType":5126,
			"count":137732,
			"max":[
				0.5000688433647156,
				0.4598589241504669,
				0.486671507358551
			],
			"min":[
				-0.5001773834228516,
				-0.4968755841255188,
				-0.5003480315208435
			],
			"type":"VEC3"
		},
		{
			"bufferView":1,
			"componentType":5126,
			"count":137732,
			"type":"VEC3"
		},
		{
			"bufferView":2,
			"componentType":5126,
			"count":137732,
			"type":"VEC2"
		},
		{
			"bufferView":3,
			"componentType":5125,
			"count":137820,
			"type":"SCALAR"
		}
	],
	"bufferViews":[
		{
			"buffer":0,
			"byteLength":1652784,
			"byteOffset":0,
			"target":34962
		},
		{
			"buffer":0,
			"byteLength":1652784,
			"byteOffset":1652784,
			"target":34962
		},
		{
			"buffer":0,
			"byteLength":1101856,
			"byteOffset":3305568,
			"target":34962
		},
		{
			"buffer":0,
			"byteLength":551280,
			"byteOffset":4407424,
			"target":34963
		}
	],
	"samplers":[
		{
			"magFilter":9729,
			"minFilter":9987
		}
	],
	"buffers":[
		{
			"byteLength":4958704,
			"uri":"brutalist_building_2.bin"
		}
	]
}
